# xmcd
#
# Track frame offsets: 
#        150
#        10203
#        25393
#        42719
#        57165
#        71515
#        95345
#        117616
#        131341
#        145763
#        163857
#        178806
#        201892
#        228747
#
# Disc length: 3291 seconds
#
# Revision: 0
# Processed by: cddbd v1.5.2PL0 Copyright (c) Steve Scherf et al.
# Submitted via: ExactAudioCopy v0.95b4
#
DISCID=ce0cd90e
DTITLE=Bill Roberts - Raw Material
DYEAR=2006
DGENRE=Blues
TTITLE0=Brown Sugar
TTITLE1=Leland Mississippi Blues
TTITLE2=Empty Arms
TTITLE3=Hitit
TTITLE4=Messin' With The Kid
TTITLE5=Crossroads
TTITLE6=It Feels Like Rain
TTITLE7=Mary Had A Little Lamb
TTITLE8=Plynth (Water Down The Drain)
TTITLE9=Railway And Gun
TTITLE10=Hideaway
TTITLE11=Memory Pain
TTITLE12=The Lemon Song
TTITLE13=You Know What I Mean
EXTD=
EXTT0=
EXTT1=
EXTT2=
EXTT3=
EXTT4=
EXTT5=
EXTT6=
EXTT7=
EXTT8=
EXTT9=
EXTT10=
EXTT11=
EXTT12=
EXTT13=
PLAYORDER=
